# Blender v2.81 (sub 16) OBJ File: 'moreblocks_slope_outer_steep_upper.blend'
# www.blender.org
mtllib moreblocks_slope_outer_steep_upper.mtl
o Cube.001
v 0.500000 0.500000 0.500000
v 0.500000 -0.500000 0.500000
v 0.500000 -0.500000 -0.500000
v 0.500000 -0.500000 -0.000000
v 0.000000 -0.500000 0.500000
v 0.000000 -0.500000 -0.000000
v 0.000000 -0.500000 -0.000000
vt 0.500000 0.000000
vt -0.000000 0.000000
vt 0.000000 1.000000
vt 0.500000 0.500000
vt 0.000000 0.500000
vt 0.000000 0.000000
vt 0.500000 0.000000
vt 1.000000 0.000000
vt 1.000000 1.000000
vt 0.500000 1.000000
vt 0.562500 0.000000
vt 1.000000 0.000000
vt 1.000000 1.000000
vt 0.500000 0.000000
vt 0.000000 0.000000
vn 0.0000 -0.0000 1.0000
vn 0.0000 -1.0000 -0.0000
vn 1.0000 0.0000 0.0000
vn -0.8944 0.4472 0.0000
vn 0.0000 0.4472 -0.8944
usemtl Material.001
s off
f 5/1/1 2/2/1 1/3/1
f 2/4/2 5/5/2 6/6/2 4/7/2
f 1/8/3 2/9/3 4/10/3
f 7/11/4 5/12/4 1/13/4
f 7/14/5 1/3/5 4/15/5
