# Blender v2.81 (sub 16) OBJ File: 'moreblocks_slope_inner_steep_upper.blend'
# www.blender.org
mtllib moreblocks_slope_inner_steep_upper.mtl
o Cube.001_Cube.006
v 0.500000 0.500000 -0.500000
v 0.500000 0.500000 0.500000
v -0.500000 0.500000 0.500000
v 0.500000 -0.500000 -0.500000
v 0.500000 -0.500000 0.500000
v -0.500000 -0.500000 0.500000
v 0.000000 -0.500000 -0.500000
v -0.500000 -0.500000 -0.000000
v 0.000000 -0.500000 0.000000
vt 0.000000 0.000000
vt 1.000000 0.000000
vt 1.000000 1.000000
vt 0.000000 1.000000
vt 0.000000 0.000000
vt 1.000000 0.000000
vt 1.000000 1.000000
vt 0.000000 1.000000
vt 0.000000 0.000000
vt 1.000000 1.000000
vt -0.006028 0.988078
vt 0.535997 0.005099
vt 0.000000 0.000000
vt 1.000000 0.000000
vt 1.000000 1.000000
vt 0.000000 1.000000
vt 0.500000 0.000000
vt 1.000000 0.000000
vt 0.000000 0.000000
vt 1.000000 0.000000
vt 0.992188 1.000000
vt -0.007812 1.000000
vt 0.000000 0.031250
vt 1.000000 0.031250
vt 1.000000 1.062500
vt 0.000000 1.062500
vn 1.0000 0.0000 0.0000
vn -0.0000 0.0000 1.0000
vn 0.0000 0.0000 -1.0000
vn -0.8944 0.4472 -0.0000
vn -1.0000 0.0000 -0.0000
vn 0.0000 0.4472 -0.8944
vn 0.0000 -1.0000 -0.0000
usemtl Material.001
s off
f 4/1/1 1/2/1 2/3/1 5/4/1
f 5/5/2 2/6/2 3/7/2 6/8/2
f 7/9/3 1/2/3 4/10/3
f 2/3/4 1/11/4 7/9/4 9/12/4
f 6/13/5 3/14/5 8/15/5
f 2/16/6 9/17/6 8/18/6 3/7/6
f 9/19/7 5/20/7 6/21/7 8/22/7
f 7/23/7 4/24/7 5/25/7 9/26/7
